<svg id="svg" version="1.1" xmlns="http://www.w3.org/2000/svg" xmlns:xlink="http://www.w3.org/1999/xlink" width="400" height="400" viewBox="0, 0, 400,400"><g id="svgg"><path id="path0" d="M177.832 97.479 C 168.359 100.029,162.816 110.341,165.445 120.523 C 167.453 128.302,172.552 134.698,185.938 146.225 C 189.697 149.463,194.409 153.601,196.408 155.420 L 200.042 158.728 202.853 155.977 C 204.399 154.464,208.828 150.523,212.695 147.220 C 227.519 134.560,232.199 128.878,234.220 121.090 C 239.759 99.738,213.566 87.707,201.499 106.061 L 199.873 108.535 198.011 105.884 C 192.963 98.696,185.247 95.482,177.832 97.479 M124.623 137.181 C 121.341 142.577,125.478 168.817,131.662 181.834 C 136.698 192.434,141.353 197.044,158.984 208.891 C 171.191 217.093,178.541 223.112,185.705 230.770 C 188.585 233.849,191.565 235.308,192.357 234.026 C 192.962 233.047,193.813 216.415,193.638 208.984 C 193.220 191.246,189.088 184.281,173.242 174.613 C 168.661 171.818,163.762 167.911,157.617 162.151 C 149.363 154.415,147.018 153.362,144.766 156.381 C 142.093 159.964,146.250 167.654,156.512 178.111 C 159.140 180.789,161.247 183.023,161.195 183.076 C 160.941 183.329,156.031 181.936,154.578 181.198 C 144.781 176.226,138.937 166.380,134.204 146.875 C 131.973 137.678,127.236 132.885,124.623 137.181 M269.868 137.558 C 268.034 139.545,267.252 141.584,265.210 149.706 C 260.199 169.638,251.485 181.093,239.876 183.009 L 238.151 183.294 243.392 178.057 C 253.309 168.149,257.505 160.541,255.131 156.776 C 253.179 153.680,250.562 154.765,243.121 161.754 C 236.679 167.805,232.624 170.908,225.014 175.610 C 208.108 186.057,204.477 196.706,207.110 228.120 C 207.820 236.587,208.219 236.599,216.456 228.415 C 223.625 221.292,230.393 215.889,241.406 208.495 C 258.799 196.819,263.362 192.307,268.305 181.904 C 274.553 168.752,278.686 142.621,275.377 137.181 C 274.184 135.219,271.883 135.376,269.868 137.558 M84.095 272.133 L 84.180 296.680 95.117 296.628 C 107.337 296.571,109.738 296.208,114.832 293.652 C 130.919 285.577,130.926 258.582,114.844 250.707 C 109.545 248.113,108.514 247.955,95.619 247.761 L 84.011 247.587 84.095 272.133 M101.805 255.464 C 113.141 256.346,117.327 260.814,117.365 272.070 C 117.406 284.389,112.756 288.617,98.974 288.793 L 93.164 288.867 93.055 272.480 C 92.995 263.467,93.033 255.864,93.140 255.585 C 93.373 254.979,95.231 254.953,101.805 255.464 M145.313 260.323 C 135.285 263.104,129.781 273.620,132.630 284.557 C 137.246 302.277,163.912 301.941,168.558 284.104 C 172.412 269.309,159.722 256.327,145.313 260.323 M190.364 260.465 C 187.914 261.341,185.803 262.897,184.649 264.678 C 183.440 266.544,183.245 266.367,183.327 263.476 L 183.398 260.937 179.395 260.937 L 175.391 260.938 175.391 278.906 L 175.391 296.875 179.688 296.875 L 183.984 296.875 183.987 285.840 C 183.988 279.653,184.161 274.184,184.381 273.392 C 186.320 266.412,195.330 264.430,198.340 270.320 C 199.197 271.998,199.219 272.351,199.219 284.458 L 199.219 296.875 203.539 296.875 L 207.859 296.875 207.722 283.301 C 207.566 267.742,207.516 267.464,204.263 263.905 C 200.890 260.214,195.088 258.778,190.364 260.465 M226.351 260.287 C 220.516 261.775,215.625 266.382,215.625 270.389 L 215.625 271.484 219.505 271.484 C 223.083 271.484,223.405 271.422,223.641 270.677 C 225.224 265.689,234.983 264.434,237.042 268.954 C 238.809 272.832,236.174 274.807,227.930 275.782 C 217.532 277.012,213.596 280.280,214.153 287.219 C 214.975 297.472,228.211 301.195,236.669 293.553 L 238.281 292.097 238.281 294.486 L 238.281 296.875 242.410 296.875 L 246.539 296.875 246.385 283.301 C 246.210 267.796,246.213 267.814,243.159 264.516 C 239.356 260.408,232.570 258.700,226.351 260.287 M269.208 260.510 C 266.946 261.291,264.398 263.482,263.649 265.290 C 262.890 267.122,262.500 266.572,262.500 263.672 L 262.500 260.938 258.496 260.937 L 254.492 260.937 254.581 278.809 L 254.670 296.680 258.780 296.791 L 262.891 296.901 262.891 287.142 C 262.891 271.462,264.546 268.359,272.913 268.359 L 276.172 268.359 276.172 264.063 L 276.172 259.766 273.730 259.778 C 272.388 259.785,270.353 260.115,269.208 260.510 M291.447 260.359 C 273.992 265.256,274.407 292.473,292.006 297.057 C 299.876 299.107,308.618 295.374,311.849 288.583 C 313.023 286.116,313.040 286.129,308.353 285.862 L 305.183 285.682 304.454 287.036 C 300.737 293.937,288.582 290.915,287.627 282.853 L 287.391 280.859 300.532 280.859 L 313.672 280.859 313.672 278.346 C 313.672 265.394,303.331 257.026,291.447 260.359 M299.993 266.827 C 302.898 268.144,305.065 271.172,305.074 273.926 L 305.078 275.000 296.238 275.000 L 287.397 275.000 287.612 273.398 C 288.360 267.821,294.730 264.440,299.993 266.827 M154.514 267.534 C 162.125 270.991,162.240 285.696,154.688 289.582 C 147.436 293.313,140.820 288.034,140.820 278.516 C 140.820 269.441,147.290 264.252,154.514 267.534 M237.114 286.318 C 234.173 292.084,224.091 292.609,223.188 287.044 C 222.634 283.634,224.944 281.741,230.885 280.736 C 232.725 280.425,235.011 279.830,235.963 279.414 L 237.695 278.657 237.809 281.697 C 237.900 284.151,237.766 285.040,237.114 286.318 " stroke="none" fill="#043661" fill-rule="evenodd"></path><path id="path1" d="M0.002 199.998 L -0.003 399.997 199.996 399.999 L 399.996 400.001 399.994 200.002 L 399.993 0.003 200.000 0.001 L 0.008 -0.001 0.002 199.998 M183.105 95.972 C 182.729 96.071,182.114 96.071,181.738 95.972 C 181.362 95.874,181.670 95.794,182.422 95.794 C 183.174 95.794,183.481 95.874,183.105 95.972 M218.457 95.979 C 217.974 96.072,217.183 96.072,216.699 95.979 C 216.216 95.886,216.611 95.810,217.578 95.810 C 218.545 95.810,218.940 95.886,218.457 95.979 M187.109 96.502 C 187.537 96.792,187.379 96.828,186.523 96.637 C 185.087 96.315,184.775 96.092,185.775 96.100 C 186.187 96.103,186.787 96.284,187.109 96.502 M186.719 97.300 C 187.686 97.526,189.423 98.222,190.580 98.846 C 191.736 99.471,192.862 99.871,193.081 99.735 C 193.301 99.600,193.373 99.661,193.243 99.873 C 193.112 100.084,193.988 101.209,195.188 102.374 C 196.389 103.539,197.947 105.345,198.650 106.388 C 199.847 108.161,201.646 107.965,200.544 106.182 C 200.387 105.929,200.443 105.846,200.673 105.988 C 200.895 106.125,201.724 105.407,202.515 104.392 C 209.544 95.370,221.724 94.309,229.705 102.023 C 230.877 103.156,231.947 104.050,232.083 104.010 C 232.219 103.970,232.316 104.150,232.299 104.410 C 232.282 104.670,232.728 105.867,233.290 107.069 C 238.933 119.137,233.486 129.897,212.891 147.363 C 211.494 148.548,210.400 149.726,210.459 149.983 C 210.518 150.239,210.373 150.329,210.137 150.183 C 209.595 149.848,207.752 151.539,208.080 152.070 C 208.220 152.296,208.129 152.344,207.866 152.182 C 207.589 152.010,205.921 153.279,203.628 155.407 L 199.848 158.915 195.725 155.119 C 193.457 153.031,188.965 149.059,185.742 146.293 C 182.520 143.526,178.591 140.021,177.012 138.502 C 175.432 136.984,173.969 135.790,173.760 135.850 C 173.551 135.909,173.481 135.792,173.606 135.591 C 173.730 135.389,172.972 134.217,171.921 132.985 C 161.361 120.610,162.586 104.210,174.495 98.517 C 175.184 98.188,175.685 97.815,175.608 97.690 C 175.531 97.564,175.934 97.427,176.503 97.385 C 177.073 97.343,178.418 97.161,179.492 96.979 C 181.734 96.601,184.194 96.710,186.719 97.300 M129.029 136.277 C 131.401 137.841,132.919 140.978,134.725 148.047 C 140.005 168.718,146.674 178.744,157.337 182.037 C 161.032 183.178,161.409 183.030,159.407 181.220 C 158.093 180.033,157.594 179.780,157.319 180.162 C 157.052 180.532,157.011 180.497,157.160 180.025 C 157.396 179.284,155.395 177.173,154.891 177.631 C 154.710 177.795,154.669 177.742,154.799 177.512 C 154.930 177.283,154.048 175.964,152.840 174.583 C 144.621 165.183,141.828 158.394,145.041 155.630 C 147.320 153.670,149.609 154.520,154.708 159.220 C 156.668 161.026,158.459 162.388,158.688 162.246 C 158.918 162.105,158.994 162.169,158.858 162.388 C 158.372 163.174,166.298 169.985,171.688 173.414 C 173.187 174.368,175.876 176.085,177.662 177.230 C 179.448 178.375,181.101 179.194,181.335 179.049 C 181.570 178.904,181.653 178.961,181.521 179.175 C 181.258 179.600,185.517 183.466,186.056 183.291 C 186.237 183.232,186.273 183.368,186.134 183.592 C 185.995 183.817,186.340 184.545,186.900 185.211 C 187.461 185.877,188.184 186.934,188.507 187.560 C 188.831 188.185,189.252 188.601,189.443 188.483 C 189.634 188.365,189.917 188.474,190.072 188.726 C 190.262 189.032,190.185 189.078,189.838 188.863 C 189.476 188.640,189.394 188.710,189.565 189.096 C 194.033 199.182,194.716 204.842,193.593 222.461 C 192.609 237.883,192.840 237.737,183.594 228.750 C 175.533 220.917,164.608 212.117,163.665 212.700 C 163.443 212.837,163.310 212.716,163.369 212.431 C 163.429 212.145,163.173 211.938,162.797 211.968 C 162.424 211.997,162.205 211.880,162.311 211.708 C 162.418 211.536,160.375 209.960,157.771 208.207 C 152.690 204.786,151.616 204.194,152.147 205.109 C 152.338 205.438,152.324 205.532,152.113 205.339 C 151.918 205.160,151.758 204.870,151.758 204.696 C 151.758 204.521,150.088 203.112,148.047 201.565 C 133.719 190.703,126.695 176.642,124.043 153.516 C 122.395 139.145,124.154 133.063,129.029 136.277 M274.890 136.309 C 279.363 140.477,274.723 170.594,267.555 183.917 C 266.709 185.491,266.021 186.897,266.028 187.042 C 266.034 187.186,266.219 186.997,266.438 186.621 C 266.657 186.245,267.015 185.938,267.235 185.938 C 267.454 185.938,267.326 186.245,266.950 186.621 C 266.574 186.997,266.126 187.305,265.953 187.305 C 265.399 187.305,264.398 189.049,264.686 189.514 C 264.851 189.782,264.793 189.859,264.543 189.704 C 264.312 189.561,263.722 190.017,263.232 190.718 C 261.831 192.723,257.461 197.159,254.784 199.294 C 253.440 200.365,252.427 201.382,252.533 201.553 C 252.639 201.725,252.508 201.841,252.242 201.811 C 251.615 201.742,240.192 209.381,240.406 209.727 C 240.495 209.871,240.273 209.993,239.913 209.999 C 239.168 210.010,232.813 214.401,232.813 214.905 C 232.813 215.086,232.623 215.234,232.392 215.234 C 231.254 215.234,221.335 223.682,215.430 229.681 C 210.753 234.431,209.318 235.337,207.897 234.435 C 207.222 234.007,206.230 220.033,206.215 210.742 C 206.199 201.258,207.004 197.084,210.341 189.339 C 210.550 188.854,210.486 188.675,210.130 188.754 C 209.848 188.816,209.564 188.516,209.499 188.086 C 209.413 187.511,209.458 187.462,209.671 187.899 C 210.143 188.866,210.813 188.574,211.938 186.914 C 212.521 186.055,213.492 184.750,214.098 184.015 C 214.703 183.280,215.090 182.489,214.958 182.257 C 214.826 182.026,214.857 181.961,215.027 182.114 C 215.196 182.267,216.115 181.752,217.070 180.970 L 218.804 179.549 217.898 179.025 C 217.099 178.562,217.084 178.513,217.773 178.606 C 218.203 178.664,218.658 178.850,218.783 179.020 C 218.909 179.191,220.315 178.465,221.908 177.409 C 223.501 176.352,226.200 174.642,227.906 173.608 C 234.071 169.870,244.064 161.411,243.493 160.413 C 243.351 160.164,243.378 160.091,243.553 160.250 C 243.728 160.408,244.767 159.773,245.861 158.839 C 250.413 154.951,252.384 154.271,254.430 155.880 C 258.592 159.154,254.128 167.871,242.489 179.199 C 238.428 183.152,238.460 183.515,242.740 182.043 C 248.226 180.155,257.558 172.113,256.413 170.260 C 256.244 169.986,256.298 169.905,256.547 170.059 C 257.087 170.393,258.738 167.737,258.366 167.134 C 258.202 166.870,258.251 166.780,258.480 166.922 C 259.425 167.506,262.818 158.381,265.271 148.659 C 267.997 137.855,271.593 133.238,274.890 136.309 M122.932 149.316 C 122.839 149.800,122.763 149.404,122.763 148.438 C 122.763 147.471,122.839 147.075,122.932 147.559 C 123.025 148.042,123.025 148.833,122.932 149.316 M277.229 149.707 C 277.136 150.190,277.060 149.795,277.060 148.828 C 277.060 147.861,277.136 147.466,277.229 147.949 C 277.322 148.433,277.322 149.224,277.229 149.707 M123.316 153.027 C 123.218 153.403,123.138 153.096,123.138 152.344 C 123.138 151.592,123.218 151.284,123.316 151.660 C 123.414 152.036,123.414 152.651,123.316 153.027 M124.157 158.984 L 124.141 159.961 123.828 158.984 C 123.656 158.447,123.518 157.305,123.521 156.445 L 123.527 154.883 123.851 156.445 C 124.028 157.305,124.166 158.447,124.157 158.984 M256.648 161.343 L 256.228 162.305 256.429 161.328 C 256.540 160.791,256.659 159.912,256.694 159.375 L 256.758 158.398 256.912 159.390 C 256.998 159.935,256.878 160.814,256.648 161.343 M275.725 161.858 C 275.480 163.081,275.201 164.003,275.105 163.907 C 275.010 163.812,275.138 162.739,275.391 161.523 C 275.643 160.308,275.922 159.386,276.011 159.474 C 276.099 159.563,275.971 160.636,275.725 161.858 M252.164 171.068 C 252.023 171.297,251.620 171.484,251.269 171.484 C 250.736 171.484,250.756 171.394,251.390 170.930 C 252.208 170.332,252.579 170.398,252.164 171.068 M158.984 181.641 C 159.761 182.142,158.785 182.142,157.617 181.641 L 156.836 181.305 157.617 181.283 C 158.047 181.272,158.662 181.432,158.984 181.641 M194.410 203.027 C 194.312 203.403,194.231 203.096,194.231 202.344 C 194.231 201.592,194.312 201.284,194.410 201.660 C 194.508 202.036,194.508 202.651,194.410 203.027 M205.745 203.999 C 205.652 204.485,205.572 204.180,205.567 203.320 C 205.563 202.461,205.639 202.063,205.737 202.437 C 205.835 202.810,205.838 203.513,205.745 203.999 M194.807 207.910 C 194.714 208.394,194.638 207.998,194.638 207.031 C 194.638 206.064,194.714 205.669,194.807 206.152 C 194.900 206.636,194.900 207.427,194.807 207.910 M205.367 212.598 C 205.291 213.940,205.229 212.842,205.229 210.156 C 205.229 207.471,205.291 206.372,205.367 207.715 C 205.444 209.058,205.444 211.255,205.367 212.598 M194.818 216.884 C 194.735 217.803,194.667 217.148,194.665 215.430 C 194.664 213.711,194.731 212.959,194.815 213.759 C 194.899 214.559,194.900 215.965,194.818 216.884 M205.744 220.801 C 205.651 221.284,205.575 220.889,205.575 219.922 C 205.575 218.955,205.651 218.560,205.744 219.043 C 205.838 219.526,205.838 220.317,205.744 220.801 M194.591 222.672 C 194.582 223.785,194.478 224.793,194.358 224.913 C 194.238 225.032,194.141 224.017,194.141 222.656 C 194.141 221.296,194.245 220.287,194.374 220.415 C 194.502 220.543,194.600 221.559,194.591 222.672 M206.129 225.293 C 206.030 225.669,205.950 225.361,205.950 224.609 C 205.950 223.857,206.030 223.550,206.129 223.926 C 206.227 224.302,206.227 224.917,206.129 225.293 M91.309 246.754 C 90.933 246.852,90.317 246.852,89.941 246.754 C 89.565 246.655,89.873 246.575,90.625 246.575 C 91.377 246.575,91.685 246.655,91.309 246.754 M103.038 246.768 C 102.238 246.852,100.831 246.853,99.913 246.771 C 98.994 246.688,99.648 246.620,101.367 246.618 C 103.086 246.617,103.838 246.684,103.038 246.768 M105.021 247.672 C 112.120 248.562,118.484 251.693,121.889 255.970 C 122.782 257.091,123.656 258.008,123.833 258.008 C 124.009 258.008,124.300 258.168,124.479 258.363 C 124.672 258.574,124.579 258.588,124.250 258.397 C 123.815 258.145,123.766 258.237,124.024 258.823 C 128.796 269.690,127.636 281.847,121.134 289.109 C 120.053 290.317,119.294 291.443,119.448 291.613 C 119.601 291.783,119.499 291.791,119.221 291.631 C 118.602 291.273,117.490 292.119,117.838 292.683 C 117.976 292.906,117.913 292.980,117.696 292.846 C 117.480 292.713,116.091 293.202,114.609 293.933 C 109.566 296.421,108.437 296.589,95.605 296.771 L 83.984 296.936 83.984 272.101 L 83.984 247.266 92.881 247.266 C 97.775 247.266,103.238 247.449,105.021 247.672 M83.496 284.668 C 83.436 291.489,83.387 285.908,83.387 272.266 C 83.387 258.623,83.436 253.042,83.496 259.863 C 83.556 266.685,83.556 277.847,83.496 284.668 M93.359 272.070 L 93.359 288.672 98.340 288.665 C 110.561 288.648,115.815 285.166,117.219 276.150 C 117.869 271.979,117.015 264.031,115.985 264.668 C 115.817 264.771,115.552 264.651,115.396 264.399 C 115.220 264.114,115.283 264.046,115.565 264.221 C 116.373 264.720,116.041 263.584,114.822 261.685 C 111.931 257.179,107.214 255.469,97.679 255.469 L 93.359 255.469 93.359 272.070 M95.239 256.137 C 94.661 256.225,94.110 256.594,94.015 256.957 C 93.891 257.425,93.827 257.362,93.795 256.738 C 93.757 255.987,93.934 255.868,95.020 255.918 C 96.166 255.971,96.187 255.992,95.239 256.137 M149.307 259.002 C 147.314 259.165,145.380 259.414,145.010 259.555 C 144.566 259.724,144.469 259.681,144.727 259.428 C 145.240 258.924,146.850 258.711,150.195 258.708 C 152.790 258.705,152.745 258.720,149.307 259.002 M197.461 258.969 C 197.920 259.158,197.194 259.205,195.703 259.084 C 194.307 258.971,193.091 258.815,193.001 258.736 C 192.672 258.448,196.705 258.659,197.461 258.969 M234.766 258.973 C 235.303 259.138,234.336 259.185,232.617 259.076 C 230.898 258.967,229.419 258.814,229.329 258.736 C 229.019 258.465,233.794 258.673,234.766 258.973 M273.796 258.735 C 273.706 258.812,272.842 258.980,271.875 259.108 C 270.701 259.263,270.377 259.226,270.898 258.995 C 271.644 258.664,274.135 258.441,273.796 258.735 M299.922 258.926 C 300.417 259.065,298.757 259.180,296.233 259.180 C 293.710 259.180,292.163 259.069,292.795 258.933 C 294.309 258.608,298.783 258.604,299.922 258.926 M157.182 260.609 C 173.723 266.103,173.421 291.724,156.756 296.871 C 153.025 298.024,147.212 297.950,143.556 296.705 C 141.543 296.019,140.735 295.893,140.492 296.227 C 140.280 296.516,140.237 296.440,140.373 296.016 C 140.520 295.556,140.175 295.098,139.249 294.526 C 130.981 289.416,129.216 274.819,135.818 266.142 C 140.172 260.421,149.412 258.028,157.182 260.609 M234.570 259.763 C 239.820 260.621,244.672 264.352,245.895 268.468 C 246.370 270.068,246.484 273.021,246.484 283.665 L 246.484 296.875 242.221 296.875 L 237.958 296.875 238.050 294.727 C 238.101 293.545,238.107 292.578,238.065 292.578 C 238.023 292.578,237.345 293.168,236.557 293.889 C 228.145 301.594,214.013 297.116,213.929 286.719 C 213.872 279.703,217.380 276.949,228.125 275.574 C 236.495 274.503,239.615 271.775,236.458 268.287 C 235.752 267.507,234.946 267.312,235.389 268.029 C 235.563 268.311,235.496 268.374,235.210 268.197 C 234.959 268.042,234.854 267.751,234.978 267.550 C 235.388 266.887,233.048 266.337,230.426 266.480 C 227.329 266.649,225.337 267.798,224.309 270.009 L 223.633 271.464 219.434 271.474 C 217.124 271.480,215.234 271.340,215.234 271.165 C 215.234 265.979,221.410 260.673,228.513 259.755 C 231.693 259.344,232.015 259.345,234.570 259.763 M275.830 259.766 C 276.504 259.766,276.563 260.125,276.563 264.235 L 276.563 268.705 273.926 268.487 C 270.186 268.178,268.175 268.822,265.963 271.037 C 263.415 273.588,263.286 274.331,263.283 286.426 L 263.281 296.875 258.789 296.875 L 254.297 296.875 254.297 278.711 L 254.297 260.547 258.594 260.547 L 262.891 260.547 262.891 263.325 L 262.891 266.104 264.160 264.216 C 266.236 261.128,270.541 259.104,273.975 259.603 C 274.592 259.692,275.427 259.766,275.830 259.766 M300.027 259.933 C 308.728 261.777,313.672 268.186,313.672 277.621 L 313.672 280.859 300.536 280.859 L 287.400 280.859 287.656 282.460 C 288.006 284.648,288.961 286.827,289.440 286.531 C 289.664 286.393,289.742 286.530,289.621 286.846 C 289.079 288.258,293.496 290.621,296.680 290.621 C 299.952 290.621,304.249 288.566,303.742 287.244 C 303.613 286.909,303.692 286.782,303.937 286.933 C 304.164 287.073,304.446 286.819,304.564 286.367 C 304.805 285.444,305.202 285.402,309.902 285.800 C 313.259 286.083,313.254 286.076,311.928 288.717 C 311.399 289.771,311.018 290.851,311.083 291.118 C 311.147 291.384,311.123 291.461,311.030 291.289 C 310.936 291.117,309.912 291.873,308.753 292.968 C 302.871 298.531,291.484 299.393,286.266 294.670 C 285.884 294.325,285.376 294.191,285.083 294.360 C 284.801 294.523,284.697 294.516,284.852 294.345 C 285.006 294.174,284.332 293.143,283.353 292.054 C 277.624 285.683,276.757 274.328,281.469 267.385 C 282.000 266.602,282.316 265.754,282.170 265.500 C 282.025 265.247,282.049 265.168,282.224 265.327 C 282.398 265.485,283.318 264.899,284.267 264.024 C 288.287 260.318,294.383 258.736,300.027 259.933 M94.026 262.207 C 93.933 262.690,93.856 262.295,93.856 261.328 C 93.856 260.361,93.933 259.966,94.026 260.449 C 94.119 260.933,94.119 261.724,94.026 262.207 M180.181 260.041 C 179.701 260.133,178.822 260.136,178.228 260.046 C 177.634 259.956,178.027 259.880,179.102 259.877 C 180.176 259.874,180.662 259.948,180.181 260.041 M200.701 260.880 C 203.261 262.211,205.331 264.290,206.531 266.734 L 207.617 268.945 207.733 282.910 L 207.849 296.875 203.554 296.875 L 199.259 296.875 199.141 284.473 C 199.036 273.421,198.945 271.890,198.300 270.418 C 196.481 266.258,190.652 265.734,186.946 269.397 C 184.349 271.965,184.193 272.832,184.056 285.449 L 183.931 296.875 179.466 296.875 L 175.000 296.875 175.000 278.711 L 175.000 260.547 179.279 260.547 L 183.558 260.547 183.674 263.184 L 183.789 265.820 184.666 264.410 C 187.325 260.135,195.717 258.288,200.701 260.880 M258.887 260.035 C 258.511 260.133,257.896 260.133,257.520 260.035 C 257.144 259.937,257.451 259.856,258.203 259.856 C 258.955 259.856,259.263 259.937,258.887 260.035 M174.511 288.015 C 174.450 292.996,174.399 288.809,174.399 278.711 C 174.399 268.613,174.450 264.538,174.511 269.656 C 174.573 274.773,174.573 283.035,174.511 288.015 M94.224 268.403 C 94.200 270.362,94.084 272.062,93.965 272.180 C 93.847 272.299,93.750 270.579,93.750 268.359 C 93.750 266.139,93.867 264.439,94.009 264.582 C 94.151 264.724,94.248 266.444,94.224 268.403 M277.229 266.895 C 277.136 267.378,277.060 266.982,277.060 266.016 C 277.060 265.049,277.136 264.653,277.229 265.137 C 277.322 265.620,277.322 266.411,277.229 266.895 M295.117 266.273 C 291.477 267.130,289.755 268.416,288.425 271.273 C 286.775 274.815,286.292 274.609,296.279 274.609 L 305.059 274.609 304.817 273.340 C 303.946 268.756,299.215 265.310,295.117 266.273 M147.593 267.238 C 145.833 267.732,142.846 270.210,143.127 270.944 C 143.239 271.236,143.122 271.433,142.866 271.382 C 142.070 271.223,140.918 275.359,140.879 278.516 C 140.798 285.054,143.521 289.173,148.624 290.233 C 151.040 290.734,154.969 290.021,154.775 289.116 C 154.715 288.834,154.858 288.731,155.102 288.882 C 156.626 289.824,159.720 284.216,160.043 279.926 C 160.379 275.476,158.036 268.671,156.387 269.304 C 156.102 269.414,155.911 269.293,155.962 269.036 C 156.239 267.644,150.522 266.416,147.593 267.238 M116.676 269.434 C 116.577 269.810,116.497 269.502,116.497 268.750 C 116.497 267.998,116.577 267.690,116.676 268.066 C 116.774 268.442,116.774 269.058,116.676 269.434 M247.266 270.596 C 247.266 272.325,247.061 272.168,246.758 270.206 C 246.622 269.327,246.679 268.824,246.898 268.960 C 247.100 269.085,247.266 269.821,247.266 270.596 M288.773 272.822 C 288.621 273.619,288.768 273.795,289.706 273.935 C 290.793 274.098,290.789 274.103,289.551 274.160 C 288.312 274.217,287.696 272.981,288.542 272.135 C 288.944 271.734,288.968 271.805,288.773 272.822 M220.422 272.551 C 219.515 272.633,217.933 272.634,216.906 272.553 C 215.879 272.472,216.621 272.405,218.555 272.404 C 220.488 272.403,221.329 272.469,220.422 272.551 M198.438 273.851 C 198.438 274.053,198.179 274.219,197.864 274.219 C 197.515 274.219,197.378 273.990,197.514 273.635 C 197.745 273.034,198.438 273.196,198.438 273.851 M159.137 274.805 C 159.328 275.661,159.292 275.819,159.002 275.391 C 158.784 275.068,158.603 274.468,158.600 274.056 C 158.592 273.057,158.815 273.368,159.137 274.805 M293.266 274.097 C 292.893 274.194,292.190 274.198,291.704 274.104 C 291.218 274.011,291.523 273.931,292.383 273.927 C 293.242 273.922,293.640 273.999,293.266 274.097 M302.246 274.097 C 301.870 274.196,301.255 274.196,300.879 274.097 C 300.503 273.999,300.811 273.919,301.563 273.919 C 302.314 273.919,302.622 273.999,302.246 274.097 M231.934 274.488 C 231.558 274.586,230.942 274.586,230.566 274.488 C 230.190 274.390,230.498 274.309,231.250 274.309 C 232.002 274.309,232.310 274.390,231.934 274.488 M229.264 274.752 C 229.175 274.830,228.135 274.994,226.953 275.117 C 225.566 275.260,225.151 275.223,225.781 275.013 C 226.749 274.690,229.577 274.478,229.264 274.752 M94.163 281.747 L 94.187 287.846 95.629 287.998 L 97.070 288.150 95.410 288.216 L 93.750 288.281 93.750 281.771 C 93.750 278.190,93.837 275.348,93.944 275.454 C 94.051 275.561,94.149 278.393,94.163 281.747 M198.327 278.022 C 198.237 278.616,198.162 278.223,198.159 277.148 C 198.156 276.074,198.229 275.588,198.322 276.069 C 198.415 276.549,198.417 277.428,198.327 278.022 M208.878 279.590 C 208.794 280.396,208.725 279.736,208.725 278.125 C 208.725 276.514,208.794 275.854,208.878 276.660 C 208.963 277.466,208.963 278.784,208.878 279.590 M131.338 280.763 C 131.397 282.321,131.313 283.595,131.152 283.595 C 130.991 283.594,130.888 281.792,130.922 279.590 C 130.987 275.425,131.155 275.897,131.338 280.763 M277.620 278.609 C 277.527 279.095,277.447 278.789,277.442 277.930 C 277.438 277.070,277.514 276.673,277.612 277.046 C 277.710 277.420,277.713 278.123,277.620 278.609 M263.964 291.871 C 263.897 294.731,263.842 292.500,263.842 286.914 C 263.842 281.328,263.897 278.989,263.964 281.715 C 264.031 284.442,264.031 289.012,263.964 291.871 M170.198 279.781 C 170.105 280.267,170.025 279.961,170.020 279.102 C 170.016 278.242,170.092 277.845,170.190 278.218 C 170.288 278.592,170.292 279.295,170.198 279.781 M236.193 279.573 C 235.582 279.894,233.648 280.424,231.896 280.750 C 226.660 281.725,225.710 282.043,224.548 283.205 C 222.560 285.192,223.326 290.253,225.521 289.639 C 226.161 289.460,226.230 289.497,225.802 289.791 C 225.102 290.273,226.800 290.798,228.906 290.750 C 234.425 290.626,237.864 287.098,237.882 281.543 C 237.891 278.713,237.872 278.691,236.193 279.573 M159.260 282.129 C 159.167 282.612,159.091 282.217,159.091 281.250 C 159.091 280.283,159.167 279.888,159.260 280.371 C 159.353 280.854,159.353 281.646,159.260 282.129 M185.035 281.543 C 184.937 281.919,184.856 281.611,184.856 280.859 C 184.856 280.107,184.937 279.800,185.035 280.176 C 185.133 280.552,185.133 281.167,185.035 281.543 M293.072 281.916 C 292.591 282.008,291.712 282.011,291.119 281.921 C 290.525 281.831,290.918 281.755,291.992 281.752 C 293.066 281.749,293.552 281.823,293.072 281.916 M305.176 281.932 C 303.188 282.003,299.937 282.003,297.949 281.932 C 295.962 281.861,297.588 281.803,301.563 281.803 C 305.537 281.803,307.163 281.861,305.176 281.932 M312.409 281.920 C 311.822 282.009,310.768 282.011,310.066 281.924 C 309.363 281.837,309.844 281.764,311.133 281.762 C 312.422 281.759,312.996 281.831,312.409 281.920 M125.739 283.760 C 125.461 284.528,125.106 285.156,124.951 285.156 C 124.795 285.156,124.962 284.467,125.321 283.625 C 126.125 281.744,126.432 281.843,125.739 283.760 M198.316 283.887 C 198.218 284.263,198.138 283.955,198.138 283.203 C 198.138 282.451,198.218 282.144,198.316 282.520 C 198.414 282.896,198.414 283.511,198.316 283.887 M209.008 284.189 C 208.665 285.338,208.661 285.333,208.627 283.809 C 208.606 282.807,208.727 282.399,208.974 282.646 C 209.209 282.881,209.222 283.470,209.008 284.189 M236.715 285.438 C 236.293 286.096,236.281 286.095,236.494 285.417 C 236.618 285.024,236.743 284.321,236.772 283.855 C 236.825 283.009,236.825 283.009,236.993 283.875 C 237.085 284.353,236.960 285.056,236.715 285.438 M208.869 287.988 C 208.776 288.472,208.700 288.076,208.700 287.109 C 208.700 286.143,208.776 285.747,208.869 286.230 C 208.963 286.714,208.963 287.505,208.869 287.988 M99.707 288.166 C 99.224 288.259,98.433 288.259,97.949 288.166 C 97.466 288.073,97.861 287.997,98.828 287.997 C 99.795 287.997,100.190 288.073,99.707 288.166 M229.980 290.113 C 229.604 290.211,228.989 290.211,228.613 290.113 C 228.237 290.015,228.545 289.934,229.297 289.934 C 230.049 289.934,230.356 290.015,229.980 290.113 M208.869 295.020 C 208.776 295.503,208.700 295.107,208.700 294.141 C 208.700 293.174,208.776 292.778,208.869 293.262 C 208.963 293.745,208.963 294.536,208.869 295.020 M113.909 296.377 C 113.496 296.790,113.153 296.628,113.057 295.974 C 112.973 295.401,113.059 295.356,113.517 295.737 C 113.828 295.994,114.004 296.283,113.909 296.377 M104.985 297.534 C 104.612 297.632,103.908 297.635,103.423 297.542 C 102.937 297.448,103.242 297.368,104.102 297.364 C 104.961 297.360,105.358 297.436,104.985 297.534 " stroke="none" fill="#fbfbfc" fill-rule="evenodd"></path><path id="path2" d="M193.886 210.547 C 193.886 212.373,193.954 213.120,194.036 212.207 C 194.118 211.294,194.118 209.800,194.036 208.887 C 193.954 207.974,193.886 208.721,193.886 210.547 M218.921 225.879 L 217.773 227.148 219.043 226.001 C 219.741 225.370,220.313 224.799,220.313 224.732 C 220.313 224.430,219.990 224.696,218.921 225.879 M214.823 229.980 L 213.477 231.445 214.941 230.099 C 216.305 228.846,216.586 228.516,216.288 228.516 C 216.222 228.516,215.563 229.175,214.823 229.980 M93.147 255.567 C 93.044 255.836,93.008 263.262,93.066 272.071 L 93.173 288.086 93.266 271.794 L 93.359 255.503 96.191 255.368 L 99.023 255.233 96.179 255.156 C 94.203 255.102,93.278 255.227,93.147 255.567 M177.246 260.835 C 178.374 260.914,180.220 260.914,181.348 260.835 C 182.476 260.756,181.553 260.691,179.297 260.691 C 177.041 260.691,176.118 260.756,177.246 260.835 M258.282 260.831 L 262.463 260.964 262.607 263.197 L 262.751 265.430 262.723 263.086 L 262.695 260.742 258.398 260.720 L 254.102 260.699 258.282 260.831 M183.315 263.086 C 183.318 264.160,183.394 264.553,183.483 263.959 C 183.573 263.366,183.571 262.487,183.478 262.006 C 183.385 261.526,183.312 262.012,183.315 263.086 M254.477 278.711 C 254.477 288.379,254.528 292.278,254.590 287.376 C 254.652 282.473,254.651 274.563,254.589 269.798 C 254.527 265.032,254.477 269.043,254.477 278.711 M291.917 274.901 C 294.453 274.969,298.496 274.969,300.901 274.901 C 303.306 274.832,301.230 274.777,296.289 274.777 C 291.348 274.777,289.380 274.833,291.917 274.901 M84.083 276.367 C 84.087 277.227,84.167 277.532,84.261 277.046 C 84.354 276.560,84.351 275.857,84.253 275.484 C 84.155 275.110,84.079 275.508,84.083 276.367 M131.731 278.516 C 131.731 279.268,131.812 279.575,131.910 279.199 C 132.008 278.823,132.008 278.208,131.910 277.832 C 131.812 277.456,131.731 277.764,131.731 278.516 M93.314 288.784 C 93.484 288.954,95.366 289.041,97.495 288.977 L 101.367 288.862 97.186 288.670 C 94.886 288.563,93.144 288.615,93.314 288.784 " stroke="none" fill="#6aabbe" fill-rule="evenodd"></path><path id="path3" d="M174.219 135.669 C 174.219 135.736,174.790 136.308,175.488 136.939 L 176.758 138.086 175.611 136.816 C 174.541 135.633,174.219 135.367,174.219 135.669 M263.059 287.109 C 263.059 292.158,263.114 294.224,263.182 291.699 C 263.250 289.175,263.250 285.044,263.182 282.520 C 263.114 279.995,263.059 282.061,263.059 287.109 " stroke="none" fill="#98c9d8" fill-rule="evenodd"></path><path id="path4" d="M181.738 95.972 C 182.114 96.071,182.729 96.071,183.105 95.972 C 183.481 95.874,183.174 95.794,182.422 95.794 C 181.670 95.794,181.362 95.874,181.738 95.972 M216.699 95.979 C 217.183 96.072,217.974 96.072,218.457 95.979 C 218.940 95.886,218.545 95.810,217.578 95.810 C 216.611 95.810,216.216 95.886,216.699 95.979 M185.189 96.234 C 185.278 96.311,185.879 96.492,186.523 96.637 C 187.379 96.828,187.537 96.792,187.109 96.502 C 186.582 96.145,184.797 95.896,185.189 96.234 M223.807 137.402 L 222.461 138.867 223.926 137.521 C 225.289 136.268,225.570 135.938,225.272 135.938 C 225.207 135.938,224.547 136.597,223.807 137.402 M122.763 148.438 C 122.763 149.404,122.839 149.800,122.932 149.316 C 123.025 148.833,123.025 148.042,122.932 147.559 C 122.839 147.075,122.763 147.471,122.763 148.438 M277.060 148.828 C 277.060 149.795,277.136 150.190,277.229 149.707 C 277.322 149.224,277.322 148.433,277.229 147.949 C 277.136 147.466,277.060 147.861,277.060 148.828 M123.138 152.344 C 123.138 153.096,123.218 153.403,123.316 153.027 C 123.414 152.651,123.414 152.036,123.316 151.660 C 123.218 151.284,123.138 151.592,123.138 152.344 M123.521 156.445 C 123.518 157.305,123.656 158.447,123.828 158.984 L 124.141 159.961 124.157 158.984 C 124.166 158.447,124.028 157.305,123.851 156.445 L 123.527 154.883 123.521 156.445 M256.694 159.375 C 256.659 159.912,256.540 160.791,256.429 161.328 L 256.228 162.305 256.648 161.343 C 256.878 160.814,256.998 159.935,256.912 159.390 L 256.758 158.398 256.694 159.375 M244.735 159.756 C 244.351 160.181,243.840 160.417,243.600 160.280 C 243.360 160.143,243.294 160.175,243.454 160.351 C 243.613 160.526,243.533 160.950,243.275 161.292 C 243.018 161.634,243.459 161.308,244.255 160.568 C 245.052 159.828,245.703 159.168,245.703 159.103 C 245.703 158.822,245.388 159.035,244.735 159.756 M275.391 161.523 C 275.138 162.739,275.010 163.812,275.105 163.907 C 275.201 164.003,275.480 163.081,275.725 161.858 C 275.971 160.636,276.099 159.563,276.011 159.474 C 275.922 159.386,275.643 160.308,275.391 161.523 M158.174 162.609 C 159.124 163.676,159.850 164.129,159.036 163.148 C 158.796 162.859,158.731 162.464,158.890 162.269 C 159.049 162.074,159.020 162.044,158.825 162.204 C 158.630 162.363,158.190 162.280,157.848 162.020 C 157.506 161.760,157.653 162.025,158.174 162.609 M251.390 170.930 C 250.756 171.394,250.736 171.484,251.269 171.484 C 251.620 171.484,252.023 171.297,252.164 171.068 C 252.579 170.398,252.208 170.332,251.390 170.930 M154.143 176.238 C 154.333 176.546,154.212 176.614,153.775 176.446 C 153.418 176.309,153.125 176.378,153.125 176.599 C 153.125 176.821,153.521 176.947,154.004 176.880 C 154.620 176.794,154.844 176.933,154.753 177.344 C 154.681 177.666,154.757 177.795,154.921 177.631 C 155.297 177.255,157.399 179.231,157.261 179.830 C 157.205 180.074,157.235 180.134,157.329 179.964 C 157.422 179.794,157.788 179.872,158.143 180.138 C 158.499 180.403,157.740 179.532,156.458 178.201 C 154.171 175.828,153.579 175.326,154.143 176.238 M217.241 178.679 C 217.968 179.302,219.101 179.647,218.926 179.193 C 218.818 178.911,218.363 178.653,217.914 178.619 C 217.466 178.585,217.163 178.612,217.241 178.679 M216.219 181.631 C 215.835 182.056,215.324 182.292,215.085 182.155 C 214.845 182.018,214.779 182.050,214.938 182.226 C 215.097 182.401,215.017 182.825,214.760 183.167 C 214.502 183.509,214.943 183.183,215.740 182.443 C 216.536 181.703,217.188 181.043,217.188 180.978 C 217.188 180.697,216.872 180.910,216.219 181.631 M157.617 181.641 C 158.785 182.142,159.761 182.142,158.984 181.641 C 158.662 181.432,158.047 181.272,157.617 181.283 L 156.836 181.305 157.617 181.641 M266.548 186.521 C 266.425 186.842,266.140 186.991,265.914 186.851 C 265.675 186.703,265.620 186.786,265.783 187.049 C 266.141 187.628,266.116 187.636,266.902 186.719 C 267.269 186.289,267.391 185.938,267.171 185.938 C 266.952 185.938,266.672 186.200,266.548 186.521 M209.495 188.049 C 209.536 188.458,209.879 188.838,210.256 188.894 C 210.633 188.949,210.840 188.831,210.717 188.631 C 210.594 188.432,210.343 188.361,210.159 188.475 C 209.975 188.589,209.734 188.372,209.622 187.993 C 209.450 187.407,209.431 187.416,209.495 188.049 M194.231 202.344 C 194.231 203.096,194.312 203.403,194.410 203.027 C 194.508 202.651,194.508 202.036,194.410 201.660 C 194.312 201.284,194.231 201.592,194.231 202.344 M205.567 203.320 C 205.572 204.180,205.652 204.485,205.745 203.999 C 205.838 203.513,205.835 202.810,205.737 202.437 C 205.639 202.063,205.563 202.461,205.567 203.320 M194.638 207.031 C 194.638 207.998,194.714 208.394,194.807 207.910 C 194.900 207.427,194.900 206.636,194.807 206.152 C 194.714 205.669,194.638 206.064,194.638 207.031 M205.229 210.156 C 205.229 212.842,205.291 213.940,205.367 212.598 C 205.444 211.255,205.444 209.058,205.367 207.715 C 205.291 206.372,205.229 207.471,205.229 210.156 M194.665 215.430 C 194.667 217.148,194.735 217.803,194.818 216.884 C 194.900 215.965,194.899 214.559,194.815 213.759 C 194.731 212.959,194.664 213.711,194.665 215.430 M205.575 219.922 C 205.575 220.889,205.651 221.284,205.744 220.801 C 205.838 220.317,205.838 219.526,205.744 219.043 C 205.651 218.560,205.575 218.955,205.575 219.922 M194.141 222.656 C 194.141 224.017,194.238 225.032,194.358 224.913 C 194.652 224.618,194.666 220.708,194.374 220.415 C 194.245 220.287,194.141 221.296,194.141 222.656 M205.950 224.609 C 205.950 225.361,206.030 225.669,206.129 225.293 C 206.227 224.917,206.227 224.302,206.129 223.926 C 206.030 223.550,205.950 223.857,205.950 224.609 M89.941 246.754 C 90.317 246.852,90.933 246.852,91.309 246.754 C 91.685 246.655,91.377 246.575,90.625 246.575 C 89.873 246.575,89.565 246.655,89.941 246.754 M99.913 246.771 C 100.831 246.853,102.238 246.852,103.038 246.768 C 103.838 246.684,103.086 246.617,101.367 246.618 C 99.648 246.620,98.994 246.688,99.913 246.771 M88.792 247.558 C 91.544 247.625,95.939 247.625,98.558 247.557 C 101.177 247.490,98.926 247.435,93.555 247.435 C 88.184 247.435,86.041 247.490,88.792 247.558 M83.387 272.266 C 83.387 285.908,83.436 291.489,83.496 284.668 C 83.556 277.847,83.556 266.685,83.496 259.863 C 83.436 253.042,83.387 258.623,83.387 272.266 M93.795 256.738 C 93.827 257.362,93.891 257.425,94.015 256.957 C 94.110 256.594,94.661 256.225,95.239 256.137 C 96.187 255.992,96.166 255.971,95.020 255.918 C 93.934 255.868,93.757 255.987,93.795 256.738 M146.289 258.878 C 145.645 258.969,144.941 259.217,144.727 259.428 C 144.469 259.681,144.566 259.724,145.010 259.555 C 145.380 259.414,147.314 259.165,149.307 259.002 C 152.745 258.720,152.790 258.705,150.195 258.708 C 148.691 258.710,146.934 258.786,146.289 258.878 M193.001 258.736 C 193.091 258.815,194.307 258.971,195.703 259.084 C 197.194 259.205,197.920 259.158,197.461 258.969 C 196.705 258.659,192.672 258.448,193.001 258.736 M229.329 258.736 C 229.419 258.814,230.898 258.967,232.617 259.076 C 234.336 259.185,235.303 259.138,234.766 258.973 C 233.794 258.673,229.019 258.465,229.329 258.736 M270.898 258.995 C 270.377 259.226,270.701 259.263,271.875 259.108 C 272.842 258.980,273.706 258.812,273.796 258.735 C 274.135 258.441,271.644 258.664,270.898 258.995 M292.795 258.933 C 292.163 259.069,293.710 259.180,296.233 259.180 C 298.757 259.180,300.417 259.065,299.922 258.926 C 298.783 258.604,294.309 258.608,292.795 258.933 M149.907 259.651 C 150.393 259.745,151.096 259.741,151.469 259.643 C 151.843 259.546,151.445 259.469,150.586 259.474 C 149.727 259.478,149.421 259.558,149.907 259.651 M231.157 259.651 C 231.643 259.745,232.346 259.741,232.719 259.643 C 233.093 259.546,232.695 259.469,231.836 259.474 C 230.977 259.478,230.671 259.558,231.157 259.651 M295.605 259.651 C 296.089 259.744,296.880 259.744,297.363 259.651 C 297.847 259.558,297.451 259.481,296.484 259.481 C 295.518 259.481,295.122 259.558,295.605 259.651 M93.856 261.328 C 93.856 262.295,93.933 262.690,94.026 262.207 C 94.119 261.724,94.119 260.933,94.026 260.449 C 93.933 259.966,93.856 260.361,93.856 261.328 M178.228 260.046 C 178.822 260.136,179.701 260.133,180.181 260.041 C 180.662 259.948,180.176 259.874,179.102 259.877 C 178.027 259.880,177.634 259.956,178.228 260.046 M257.520 260.035 C 257.896 260.133,258.511 260.133,258.887 260.035 C 259.263 259.937,258.955 259.856,258.203 259.856 C 257.451 259.856,257.144 259.937,257.520 260.035 M174.399 278.711 C 174.399 288.809,174.450 292.996,174.511 288.015 C 174.573 283.035,174.573 274.773,174.511 269.656 C 174.450 264.538,174.399 268.613,174.399 278.711 M276.311 263.867 C 276.309 265.801,276.375 266.641,276.457 265.734 C 276.539 264.828,276.540 263.246,276.459 262.219 C 276.379 261.192,276.312 261.934,276.311 263.867 M175.180 278.711 C 175.180 288.379,175.231 292.278,175.293 287.376 C 175.355 282.473,175.355 274.563,175.293 269.798 C 175.230 265.032,175.180 269.043,175.180 278.711 M93.750 268.359 C 93.750 270.579,93.847 272.299,93.965 272.180 C 94.277 271.869,94.317 264.890,94.009 264.582 C 93.867 264.439,93.750 266.139,93.750 268.359 M277.060 266.016 C 277.060 266.982,277.136 267.378,277.229 266.895 C 277.322 266.411,277.322 265.620,277.229 265.137 C 277.136 264.653,277.060 265.049,277.060 266.016 M116.497 268.750 C 116.497 269.502,116.577 269.810,116.676 269.434 C 116.774 269.058,116.774 268.442,116.676 268.066 C 116.577 267.690,116.497 267.998,116.497 268.750 M246.758 270.206 C 247.061 272.168,247.266 272.325,247.266 270.596 C 247.266 269.821,247.100 269.085,246.898 268.960 C 246.679 268.824,246.622 269.327,246.758 270.206 M288.542 272.135 C 287.696 272.981,288.312 274.217,289.551 274.160 C 290.789 274.103,290.793 274.098,289.706 273.935 C 288.768 273.795,288.621 273.619,288.773 272.822 C 288.968 271.805,288.944 271.734,288.542 272.135 M216.906 272.553 C 217.933 272.634,219.515 272.633,220.422 272.551 C 221.329 272.469,220.488 272.403,218.555 272.404 C 216.621 272.405,215.879 272.472,216.906 272.553 M197.514 273.635 C 197.378 273.990,197.515 274.219,197.864 274.219 C 198.496 274.219,198.639 273.608,198.088 273.267 C 197.895 273.149,197.637 273.314,197.514 273.635 M158.600 274.056 C 158.603 274.468,158.784 275.068,159.002 275.391 C 159.292 275.819,159.328 275.661,159.137 274.805 C 158.815 273.368,158.592 273.057,158.600 274.056 M291.704 274.104 C 292.190 274.198,292.893 274.194,293.266 274.097 C 293.640 273.999,293.242 273.922,292.383 273.927 C 291.523 273.931,291.218 274.011,291.704 274.104 M300.879 274.097 C 301.255 274.196,301.870 274.196,302.246 274.097 C 302.622 273.999,302.314 273.919,301.563 273.919 C 300.811 273.919,300.503 273.999,300.879 274.097 M230.566 274.488 C 230.942 274.586,231.558 274.586,231.934 274.488 C 232.310 274.390,232.002 274.309,231.250 274.309 C 230.498 274.309,230.190 274.390,230.566 274.488 M225.781 275.013 C 225.151 275.223,225.566 275.260,226.953 275.117 C 228.135 274.994,229.175 274.830,229.264 274.752 C 229.577 274.478,226.749 274.690,225.781 275.013 M93.750 281.771 L 93.750 288.281 95.410 288.216 L 97.070 288.150 95.629 287.998 L 94.187 287.846 94.163 281.747 C 94.149 278.393,94.051 275.561,93.944 275.454 C 93.837 275.348,93.750 278.190,93.750 281.771 M198.159 277.148 C 198.162 278.223,198.237 278.616,198.327 278.022 C 198.417 277.428,198.415 276.549,198.322 276.069 C 198.229 275.588,198.156 276.074,198.159 277.148 M208.725 278.125 C 208.725 279.736,208.794 280.396,208.878 279.590 C 208.963 278.784,208.963 277.466,208.878 276.660 C 208.794 275.854,208.725 276.514,208.725 278.125 M130.922 279.590 C 130.888 281.792,130.991 283.594,131.152 283.595 C 131.313 283.595,131.397 282.321,131.338 280.763 C 131.155 275.897,130.987 275.425,130.922 279.590 M277.442 277.930 C 277.447 278.789,277.527 279.095,277.620 278.609 C 277.713 278.123,277.710 277.420,277.612 277.046 C 277.514 276.673,277.438 277.070,277.442 277.930 M263.842 286.914 C 263.842 292.500,263.897 294.731,263.964 291.871 C 264.031 289.012,264.031 284.442,263.964 281.715 C 263.897 278.989,263.842 281.328,263.842 286.914 M169.231 278.906 C 169.231 279.658,169.312 279.966,169.410 279.590 C 169.508 279.214,169.508 278.599,169.410 278.223 C 169.312 277.847,169.231 278.154,169.231 278.906 M170.020 279.102 C 170.025 279.961,170.105 280.267,170.198 279.781 C 170.292 279.295,170.288 278.592,170.190 278.218 C 170.092 277.845,170.016 278.242,170.020 279.102 M159.091 281.250 C 159.091 282.217,159.167 282.612,159.260 282.129 C 159.353 281.646,159.353 280.854,159.260 280.371 C 159.167 279.888,159.091 280.283,159.091 281.250 M184.856 280.859 C 184.856 281.611,184.937 281.919,185.035 281.543 C 185.133 281.167,185.133 280.552,185.035 280.176 C 184.937 279.800,184.856 280.107,184.856 280.859 M291.119 281.921 C 291.712 282.011,292.591 282.008,293.072 281.916 C 293.552 281.823,293.066 281.749,291.992 281.752 C 290.918 281.755,290.525 281.831,291.119 281.921 M297.949 281.932 C 299.937 282.003,303.188 282.003,305.176 281.932 C 307.163 281.861,305.537 281.803,301.563 281.803 C 297.588 281.803,295.962 281.861,297.949 281.932 M310.066 281.924 C 310.768 282.011,311.822 282.009,312.409 281.920 C 312.996 281.831,312.422 281.759,311.133 281.762 C 309.844 281.764,309.363 281.837,310.066 281.924 M125.321 283.625 C 124.962 284.467,124.795 285.156,124.951 285.156 C 125.258 285.156,126.329 282.449,126.109 282.229 C 126.035 282.155,125.681 282.784,125.321 283.625 M198.138 283.203 C 198.138 283.955,198.218 284.263,198.316 283.887 C 198.414 283.511,198.414 282.896,198.316 282.520 C 198.218 282.144,198.138 282.451,198.138 283.203 M208.627 283.809 C 208.661 285.333,208.665 285.338,209.008 284.189 C 209.222 283.470,209.209 282.881,208.974 282.646 C 208.727 282.399,208.606 282.807,208.627 283.809 M236.772 283.855 C 236.743 284.321,236.618 285.024,236.494 285.417 C 236.281 286.095,236.293 286.096,236.715 285.438 C 236.960 285.056,237.085 284.353,236.993 283.875 C 236.825 283.009,236.825 283.009,236.772 283.855 M208.700 287.109 C 208.700 288.076,208.776 288.472,208.869 287.988 C 208.963 287.505,208.963 286.714,208.869 286.230 C 208.776 285.747,208.700 286.143,208.700 287.109 M97.949 288.166 C 98.433 288.259,99.224 288.259,99.707 288.166 C 100.190 288.073,99.795 287.997,98.828 287.997 C 97.861 287.997,97.466 288.073,97.949 288.166 M228.613 290.113 C 228.989 290.211,229.604 290.211,229.980 290.113 C 230.356 290.015,230.049 289.934,229.297 289.934 C 228.545 289.934,228.237 290.015,228.613 290.113 M208.700 294.141 C 208.700 295.107,208.776 295.503,208.869 295.020 C 208.963 294.536,208.963 293.745,208.869 293.262 C 208.776 292.778,208.700 293.174,208.700 294.141 M113.057 295.974 C 113.114 296.362,113.290 296.650,113.449 296.615 C 114.042 296.481,114.065 296.191,113.517 295.737 C 113.059 295.356,112.973 295.401,113.057 295.974 M103.423 297.542 C 103.908 297.635,104.612 297.632,104.985 297.534 C 105.358 297.436,104.961 297.360,104.102 297.364 C 103.242 297.368,102.937 297.448,103.423 297.542 " stroke="none" fill="#f6f8f4" fill-rule="evenodd"></path></g></svg>